<mxfile host="app.diagrams.net" modified="2020-05-05T16:03:35.347Z" agent="5.0 (Windows NT 10.0; Win64; x64) AppleWebKit/537.36 (KHTML, like Gecko) Chrome/81.0.4044.129 Safari/537.36" etag="Ytl6eCNM_UaNTMyq_0y8" version="13.0.7" type="github">
  <diagram id="-wxtzUrTIVRf7n_MJTA4" name="Page-1">
    <mxGraphModel dx="1578" dy="403" grid="1" gridSize="10" guides="1" tooltips="1" connect="1" arrows="1" fold="1" page="1" pageScale="1" pageWidth="850" pageHeight="1100" math="0" shadow="0">
      <root>
        <mxCell id="0" />
        <mxCell id="1" parent="0" />
        <mxCell id="1_FS9sSy4IvYd5SgdNEk-3" value="" style="outlineConnect=0;html=1;whiteSpace=wrap;fontSize=12;fontStyle=0;verticalAlign=top;align=center;spacingTop=3;strokeColor=#3333FF;" parent="1" vertex="1">
          <mxGeometry x="-20" y="100" width="1110" height="720" as="geometry" />
        </mxCell>
        <mxCell id="1_FS9sSy4IvYd5SgdNEk-5" value="" style="outlineConnect=0;html=1;whiteSpace=wrap;fontSize=12;fontStyle=0;strokeColor=#666666;fillColor=#f5f5f5;verticalAlign=top;align=center;fontColor=#333333;dashed=1;spacingTop=3;" parent="1" vertex="1">
          <mxGeometry x="-10" y="305" width="570" height="105" as="geometry" />
        </mxCell>
        <mxCell id="1_FS9sSy4IvYd5SgdNEk-6" value="" style="outlineConnect=0;html=1;whiteSpace=wrap;fontSize=12;fontStyle=0;strokeColor=#666666;fillColor=#f5f5f5;verticalAlign=top;align=center;fontColor=#333333;dashed=1;spacingTop=3;" parent="1" vertex="1">
          <mxGeometry x="110" y="450" width="370" height="250" as="geometry" />
        </mxCell>
        <mxCell id="1_FS9sSy4IvYd5SgdNEk-7" value="" style="outlineConnect=0;html=1;whiteSpace=wrap;fontSize=12;fontStyle=0;verticalAlign=top;align=center;dashed=1;spacingTop=3;fillColor=#eeeeee;strokeColor=#36393d;" parent="1" vertex="1">
          <mxGeometry x="630" y="120" width="420" height="670" as="geometry" />
        </mxCell>
        <mxCell id="1_FS9sSy4IvYd5SgdNEk-8" value="Virtual Machine Centos" style="shape=image;verticalLabelPosition=bottom;labelBackgroundColor=#ffffff;verticalAlign=top;aspect=fixed;imageAspect=0;image=data:image/svg+xml,PHN2ZyB4bWxucz0iaHR0cDovL3d3dy53My5vcmcvMjAwMC9zdmciIHhtbG5zOnhsaW5rPSJodHRwOi8vd3d3LnczLm9yZy8xOTk5L3hsaW5rIiB2ZXJzaW9uPSIxLjEiIGlkPSJMYXllcl8xIiB4PSIwcHgiIHk9IjBweCIgd2lkdGg9IjUwcHgiIGhlaWdodD0iNTBweCIgdmlld0JveD0iMCAwIDUwIDUwIiBlbmFibGUtYmFja2dyb3VuZD0ibmV3IDAgMCA1MCA1MCIgeG1sOnNwYWNlPSJwcmVzZXJ2ZSI+JiN4YTs8cGF0aCBmaWxsPSIjN0E3QTdBIiBkPSJNMzMsMzhoLTEuMjA3SDE5Ljg5MmgtMC42MjFDMjAuOTIsNDMuOTk5LDE4LjcwNSw0NC44NTksOSw0NC44NTlWNDhoMTIuMzQyaDkuMDExSDQydi0zLjE0MSAgYy05LjcwNSwwLTEwLjY1Ni0wLjg1Ny05LjAwNS02Ljg1OSIvPiYjeGE7PHBhdGggZmlsbD0iI0EwQTFBMiIgZD0iTTQ2Ljk4LDJIMi43MTlDMS4yMTUsMiwwLjAwMiwzLjM0NSwwLjAwMiw0Ljg0N3YzMS4zMjljMCwxLjQ5MywxLjIxMywyLjgyMywyLjcxNywyLjgyM0g0Ni45OCAgYzEuNTAxLDAsMy4wMjEtMS4zMywzLjAyMS0yLjgyM1Y0Ljg0N0M1MC4wMDEsMy4zNDEsNDguNDgxLDIsNDYuOTgsMiIvPiYjeGE7PHBhdGggb3BhY2l0eT0iMC4yIiBmaWxsPSIjRkZGRkZGIiBlbmFibGUtYmFja2dyb3VuZD0ibmV3ICAgICIgZD0iTTQ3LjAxMSwyLjAwM2MtMC4wMTEsMC0wLjAyMS0wLjAwMi0wLjAzMS0wLjAwMkgyLjcxOCAgYy0xLjUwNCwwLTIuNzE3LDEuMzQ0LTIuNzE3LDIuODQ3djMxLjMyOEMwLjAwMSwzNy42NywxLjIxNCwzOSwyLjcxOCwzOWgxLjA1M0w0Ny4wMTEsMi4wMDN6Ii8+JiN4YTs8cG9seWdvbiBmaWxsPSIjNTlCNEQ5IiBwb2ludHM9IjQ2LDYgNDYsMzUgNCwzNSA0LDYgIi8+JiN4YTs8cmVjdCB4PSI5IiB5PSI0NSIgZmlsbD0iI0EwQTFBMiIgd2lkdGg9IjMzIiBoZWlnaHQ9IjMiLz4mI3hhOzxwYXRoIGZpbGw9IiNCOEQ0MzIiIGQ9Ik0yNS41MTgsNC4wOTVjMCwwLjM5Mi0wLjMxOCwwLjcxLTAuNzEsMC43MWMtMC4zOTMsMC0wLjcwOS0wLjMxOC0wLjcwOS0wLjcxYzAtMC4zOTMsMC4zMTYtMC43MSwwLjcwOS0wLjcxICBDMjUuMiwzLjM4NSwyNS41MTgsMy43MDIsMjUuNTE4LDQuMDk1Ii8+JiN4YTs8cGF0aCBmaWxsPSIjRkZGRkZGIiBkPSJNMjUuMDI4LDE5LjM5NGMtMC4wNDUsMC0wLjA5MS0wLjAxNC0wLjEzNC0wLjAzOGwtOC44MDQtNS4wODJjLTAuMDgxLTAuMDQ4LTAuMTMyLTAuMTM3LTAuMTMyLTAuMjMxICBjMC0wLjA5NSwwLjA1MS0wLjE4MywwLjEzMi0wLjIzbDguNzUxLTUuMDQ5YzAuMDgyLTAuMDQ2LDAuMTgyLTAuMDQ2LDAuMjYzLDBsOC44MDcsNS4wODRjMC4wODIsMC4wNDcsMC4xMzEsMC4xMzUsMC4xMzEsMC4yMyAgYzAsMC4wOTYtMC4wNDksMC4xODMtMC4xMzEsMC4yM2wtOC43NDgsNS4wNDhDMjUuMTIsMTkuMzgsMjUuMDc2LDE5LjM5NCwyNS4wMjgsMTkuMzk0Ii8+JiN4YTs8cGF0aCBvcGFjaXR5PSIwLjciIGZpbGw9IiNGRkZGRkYiIGVuYWJsZS1iYWNrZ3JvdW5kPSJuZXcgICAgIiBkPSJNMjMuNzYzLDMxLjc0NmMtMC4wNSwwLTAuMDk1LTAuMDEyLTAuMTM0LTAuMDM2bC04Ljc3OC01LjA2NiAgYy0wLjA4NS0wLjA0Ny0wLjEzNi0wLjEzMy0wLjEzNi0wLjIzMVYxNi4yNDdjMC0wLjA5NiwwLjA1MS0wLjE4MywwLjEzNi0wLjIzMWMwLjA4MS0wLjA0OSwwLjE4MS0wLjA0OSwwLjI2OCwwbDguNzc3LDUuMDY0ICBjMC4wNzgsMC4wNSwwLjEzLDAuMTM3LDAuMTMsMC4yMzN2MTAuMTY2YzAsMC4wOTctMC4wNTIsMC4xODMtMC4xMywwLjIzMUMyMy44NTIsMzEuNzM0LDIzLjgwNiwzMS43NDYsMjMuNzYzLDMxLjc0NiIvPiYjeGE7PHBhdGggb3BhY2l0eT0iMC40IiBmaWxsPSIjRkZGRkZGIiBlbmFibGUtYmFja2dyb3VuZD0ibmV3ICAgICIgZD0iTTI2LjI0OCwzMS43NDZjLTAuMDQ4LDAtMC4wOTMtMC4wMTItMC4xMzgtMC4wMzYgIGMtMC4wNzgtMC4wNDgtMC4xMjktMC4xMzQtMC4xMjktMC4yMzFWMjEuMzc3YzAtMC4wOTQsMC4wNTEtMC4xODIsMC4xMjktMC4yMzFsOC43NzctNS4wNjRjMC4wODQtMC4wNDgsMC4xODItMC4wNDgsMC4yNjQsMCAgYzAuMDg0LDAuMDQ3LDAuMTM1LDAuMTM1LDAuMTM1LDAuMjN2MTAuMTAxYzAsMC4wOTgtMC4wNTEsMC4xODQtMC4xMzUsMC4yMzFsLTguNzc0LDUuMDY2ICBDMjYuMzQsMzEuNzM0LDI2LjI5NCwzMS43NDYsMjYuMjQ4LDMxLjc0NiIvPiYjeGE7PC9zdmc+;" parent="1" vertex="1">
          <mxGeometry x="680" y="300" width="100" height="100" as="geometry" />
        </mxCell>
        <mxCell id="1_FS9sSy4IvYd5SgdNEk-10" value="Azure Sql Postgres" style="shape=image;verticalLabelPosition=bottom;labelBackgroundColor=#ffffff;verticalAlign=top;aspect=fixed;imageAspect=0;image=data:image/svg+xml,PHN2ZyB4bWxucz0iaHR0cDovL3d3dy53My5vcmcvMjAwMC9zdmciIGlkPSJMYXllcl8xIiBkYXRhLW5hbWU9IkxheWVyIDEiIHdpZHRoPSIwLjUyNGluIiBoZWlnaHQ9IjAuNjk0aW4iIHZpZXdCb3g9IjAgMCAzNy43MjcgNTAiPiYjeGE7ICA8dGl0bGU+QXJ0Ym9hcmQgMzE8L3RpdGxlPiYjeGE7ICA8Zz4mI3hhOyAgICA8cGF0aCBkPSJNMCw2Ljg0MVY0My4xNTlDMCw0Ni45ODIsOC40NTEsNTAsMTguODEzLDUwVjYuODQxWiIgZmlsbD0iIzM5OThjNSIvPiYjeGE7ICAgIDxwYXRoIGQ9Ik0xOC42MTIsNTBoLjNjMTAuNDYzLDAsMTguODEzLTMuMDE4LDE4LjgxMy02Ljg0MVY2Ljg0MUgxOC42MTJaIiBmaWxsPSIjNTliM2Q4Ii8+JiN4YTsgICAgPHBhdGggZD0iTTM3LjcyNyw2Ljg0MWMwLDMuNzI0LTguNDUxLDYuODQxLTE4LjgxMyw2Ljg0MVMwLDEwLjU2MywwLDYuODQxLDguNDUxLDAsMTguODEzLDAsMzcuNzI3LDMuMTE5LDM3LjcyNyw2Ljg0MSIgZmlsbD0iI2ZmZiIvPiYjeGE7ICAgIDxwYXRoIGQ9Ik0zMy45LDYuNDM4YzAsMi41MTUtNi43NCw0LjUyNy0xNC45OSw0LjUyN1MzLjgyMyw4Ljk1NCwzLjgyMyw2LjQzOHM2Ljc0LTQuNTI3LDE0Ljk5LTQuNTI3UzMzLjksMy45MjMsMzMuOSw2LjQzOCIgZmlsbD0iIzdmYjkwMCIvPiYjeGE7ICAgIDxwYXRoIGQ9Ik0zMC42ODQsOS4xNTRjMi4wMTItLjgsMy4xMTktMS43MSwzLjExOS0yLjcxNiwwLTIuNTE1LTYuNzQtNC41MjctMTQuOTktNC41MjdTMy44MjMsMy45MjMsMy44MjMsNi40MzhjMCwxLjAwNiwxLjIwNywyLjAxMiwzLjExOSwyLjcxNiwyLjcxNi0xLjEwNyw3LjA0Mi0xLjcxLDExLjg3MS0xLjcxYTM2LjY2OCwzNi42NjgsMCwwLDEsMTEuODcxLDEuNzEiIGZpbGw9IiNiN2QzMzIiLz4mI3hhOyAgICA8cGF0aCBkPSJNMjkuNDY1LDMzLjgxN2MtMi45OTQuNjE3LTMuMi0uNC0zLjItLjQsMy4xNjEtNC42OTEsNC40ODMtMTAuNjQ1LDMuMzQyLTEyLjEtMy4xMTEtMy45NzUtOC41LTIuMDk1LTguNTg2LTIuMDQ2bC0uMDI5LjAwNWExMC42NzksMTAuNjc5LDAsMCwwLTItLjIwOCw0LjkzNiw0LjkzNiwwLDAsMC0zLjE2Mi45NDZzLTkuNjA4LTMuOTU4LTkuMTYxLDQuOTc2Yy4xLDEuOSwyLjcyNSwxNC4zODQsNS44NjEsMTAuNjEzLDEuMTQ2LTEuMzc5LDIuMjU0LTIuNTQ0LDIuMjU0LTIuNTQ0YTIuOTA4LDIuOTA4LDAsMCwwLDEuOS40ODVsLjA1NC0uMDQ1YTIuMDkzLDIuMDkzLDAsMCwwLC4wMjIuNTM4Yy0uODA4LjktLjU3MSwxLjA2MS0yLjE4NiwxLjM5NC0xLjYzNC4zMzctLjY3My45MzYtLjA0OCwxLjA5M2EzLjMyLDMuMzIsMCwwLDAsMy43MDYtMS4ybC0uMDQ4LjE5YTUuNCw1LjQsMCwwLDEsLjUsMi45MTcsOC4wNDQsOC4wNDQsMCwwLDAsLjE4NywyLjgxMmMuMjQ5LjY3OC41LDIuMjA1LDIuNjIxLDEuNzVhMy4xMzIsMy4xMzIsMCwwLDAsMi44MjEtMy4wMDljLjA5LTEuMTY3LjMtMSwuMzA5LTIuMDRsLjE2NS0uNDk0Yy4xOS0xLjU4NC4wMy0yLjA5NSwxLjEyMi0xLjg1N2wuMjY2LjAyM2E2LjA1Myw2LjA1MywwLDAsMCwyLjQ3Ni0uNDE3YzEuMzMxLS42MTcsMi4xMi0xLjY0OS44MDgtMS4zNzhaIiBmaWxsPSIjMzM2NzkwIi8+JiN4YTsgICAgPGc+JiN4YTsgICAgICA8cGF0aCBkPSJNMTYuODI2LDI1Ljk4YTEuMjc0LDEuMjc0LDAsMCwwLS40MzMtLjEzNS45MjguOTI4LDAsMCwwLS42MzguMDkuMjMyLjIzMiwwLDAsMC0uMS4xNTVjLS4wMjguMi4yNjkuNTc2LjY0MS42MjhhLjY4NC42ODQsMCwwLDAsLjA5LjAwNi43LjcsMCwwLDAsLjYzNC0uNDA3bC4wMS0uMDM1QzE3LjA0MywyNi4yMTgsMTcuMDI5LDI2LjA5MSwxNi44MjYsMjUuOThaIiBmaWxsPSIjZmZmIi8+JiN4YTsgICAgICA8cGF0aCBkPSJNMjUuMSwyNS42NjhhMS4xODksMS4xODksMCwwLDAtLjQzLS4wMDljLS4zMTEuMDQ1LS42MTIuMTg0LS41ODcuMzY4bC4wMDUuMDE4YS42MzQuNjM0LDAsMCwwLC41NzguMzcxLjY0OS42NDksMCwwLDAsLjA4Mi0uMDA1Ljc1OC43NTgsMCwwLDAsLjQyNi0uMjM0LjQ4Ny40ODcsMCwwLDAsLjE2MS0uMzI1QzI1LjMyLDI1Ljc2NiwyNS4yMzYsMjUuNywyNS4xLDI1LjY2OFoiIGZpbGw9IiNmZmYiLz4mI3hhOyAgICA8L2c+JiN4YTsgICAgPHBhdGggZD0iTTMwLjM3LDMzLjc3OGMtLjE0NC0uNDQyLS43NzQtLjMxLS45ODEtLjI2Ny0yLjEwOS40MzUtMi43LjAwNi0yLjgyMy0uMTE1YTI0LjU4OSwyNC41ODksMCwwLDAsMy4yNjMtNy4zMzZjLjU4My0yLjMzMy41NzItNC4xODQtLjAyNS00Ljk0N2E2LjgyLDYuODIsMCwwLDAtNS4zLTIuNjIsMTAuMjU2LDEwLjI1NiwwLDAsMC0zLjU0NS40NzNsLS4wMjUuMDA2LS4wNC4wMTRoMEwyMC44NTgsMTlhOC4yNTMsOC4yNTMsMCwwLDAtMS44NzctLjI0NCw1LjMyNiw1LjMyNiwwLDAsMC0zLjE3NC45LDEzLjg4NCwxMy44ODQsMCwwLDAtMy4wMzUtLjc2Myw2LjI3Nyw2LjI3NywwLDAsMC00LjQ4Ny44MDhjLTEuMzkxLjk4Ny0yLjAzNiwyLjc2LTEuOTExLDUuMjY4LjA2MSwxLjE4MywxLjc5MiwxMC42MDYsNC41MDksMTEuNTEzYTEuNjYsMS42NiwwLDAsMCwxLjg0LS43MzJjLjk2OC0xLjE2NCwxLjg3Mi0yLjEzLDIuMS0yLjM3QTMuMzE0LDMuMzE0LDAsMCwwLDE2LjQsMzMuOGExLjQyLDEuNDIsMCwwLDAsLjAxMy4xNjdjLS4xLjExMy0uMTkuMjI3LS4yODUuMzQ4LS4zNjMuNDYyLS40NDkuNTcxLTEuNjI2LjgxNC0uNDc3LjEtMS4xMTIuMjg0LTEuMTIyLjc1N3MuNjU0Ljc3LDEuMDQ2Ljg2N2EzLjU3NCwzLjU3NCwwLDAsMCwzLjY0My0uODgyLDI0LjI3MSwyNC4yNzEsMCwwLDAsLjM1MSw1LjZBMi42MDcsMi42MDcsMCwwLDAsMjAuOTI0LDQzLjRhNC4wMjIsNC4wMjIsMCwwLDAsLjgzNi0uMDk1LDMuMTY3LDMuMTY3LDAsMCwwLDIuOTEzLTIuOTYxYy4xNzMtMSwuNDczLTMuNDMxLjYtNC42NTRhMy4wODUsMy4wODUsMCwwLDAsMS4xMjIuMTcsNi4yMDYsNi4yMDYsMCwwLDAsMi4zNTYtLjQ0NEMyOS41LDM1LjA1OCwzMC41NTQsMzQuMzM2LDMwLjM3LDMzLjc3OFptLTUuNTg4LDEuM2MtLjA1Mi42ODMtLjQ0NiwzLjk3NC0uNjUyLDUuMTY3YTIuNjQ2LDIuNjQ2LDAsMCwxLTIuNDg3LDIuNTE5LDIuMTA1LDIuMTA1LDAsMCwxLTIuNzE3LTEuNSwyOS41NTQsMjkuNTU0LDAsMCwxLS4yOS02LjUyNi4yNjEuMjYxLDAsMCwwLS4wMjgtLjEyMiwxLjQxLDEuNDEsMCwwLDAtLjA1MS0uMjUsMS4zNzUsMS4zNzUsMCwwLDAtLjY3NS0uODE4bC0uMDMzLS4wMTdhMSwxLDAsMCwwLS44NzEtLjA1Miw3LjA4Myw3LjA4MywwLDAsMSwuMzU5LTEuMTQybC4wNTYtLjE1Yy4wNjQtLjE3Mi4xNDEtLjM0My4yMjQtLjUzMi40NDEtLjk4LDEuMDQ0LTIuMzIuMzg3LTUuMzU2YTEuODQ3LDEuODQ3LDAsMCwwLTIuMjMzLTEuNSw1LjQ0NSw1LjQ0NSwwLDAsMC0yLjExMi43NTMsOC4wOTQsOC4wOTQsMCwwLDEsMS44NTUtNC45NCw0LjU4MSw0LjU4MSwwLDAsMSwzLjQ1NS0xLjMsNy4xMjYsNy4xMjYsMCwwLDEsNS4yLDIuMjcxLDguNDMxLDguNDMxLDAsMCwxLDEuOSwzLjEyYy0xLjQyNy0uMTcxLTIuMzg2LjA4NS0yLjg1OC43NTktMSwxLjQzNi41ODMsNC4yODEsMS4zNDYsNS42NDkuMTMuMjMzLjI2NS40NzQuMzA3LjU3NmE1LjA1NSw1LjA1NSwwLDAsMCwuODA1LDEuMjkzLDIuNzMxLDIuNzMxLDAsMCwxLC4yNjkuMzcybC0uMDY1LjAxOEMyNS40NjksMzMuNDc5LDI0LjcxNCwzMy42OTEsMjQuNzgyLDM1LjA3NlptLTEzLjcyNS44ODFjLS45MS0uMy0xLjkyLTIuMTI4LTIuODQ0LTUuMTM3YTMyLjg2NSwzMi44NjUsMCwwLDEtMS4yODgtNS44NzhjLS4xMTUtMi4zMDkuNDQ5LTMuOTIxLDEuNjc5LTQuNzkyYTQuOTg4LDQuOTg4LDAsMCwxLDIuOTA2LS43ODIsMTIuNTcsMTIuNTcsMCwwLDEsMy43OTIuNjg5aDBjLS4wNTguMDUxLS4xMTguMS0uMTc1LjE2MS0yLjExMywyLjEzMi0yLjAzOCw1Ljc5NC0yLjAzNCw1Ljk0OHYuMDE4YTE3LjYsMTcuNiwwLDAsMS0uMDYyLDMuNDI1LDMuNzY2LDMuNzY2LDAsMCwwLC45OTIsMy4xNTMsMy4yODMsMy4yODMsMCwwLDAsLjMzNy4zYy0uMzQ2LjM2OC0xLjE3LDEuMjYxLTIuMDYsMi4zMzNoMEMxMS44NzIsMzUuOTA5LDExLjQ2NCwzNi4wOTIsMTEuMDU3LDM1Ljk1N1ptMi41MTktNi4yNzlhMTgsMTgsMCwwLDAsLjA3LTMuNDU1LDQuMjEsNC4yMSwwLDAsMSwyLjgtLjg3MywxLjIxMiwxLjIxMiwwLDAsMSwxLjAxOSwxLjA2Yy42MTgsMi44NTkuMDgxLDQuMDU0LS4zNTIsNS4wMTUtLjA4My4xODUtLjE2OS4zNzYtLjI0LjU2NWwtLjA1Ni4xNWE4Ljc5NCw4Ljc5NCwwLDAsMC0uMzYxLDEuMTA5LDIuNzE3LDIuNzE3LDAsMCwxLTIuMDQxLS44NjhBMy4yMjYsMy4yMjYsMCwwLDEsMTMuNTc2LDI5LjY3OFptMy4zNjgsNC41MDhhLjI2OS4yNjksMCwwLDAsLjAyNi0uMDMzLjQ1OS40NTksMCwwLDEsLjYxLS4xNDhsLjA0NS4wMjNhLjg0MS44NDEsMCwwLDEsLjM2NSwxLjEsMy4wNTEsMy4wNTEsMCwwLDEtMy40MTQsMS4xaDBhMS40NjgsMS40NjgsMCwwLDEtLjYzOS0uMzE0LDEuNTMxLDEuNTMxLDAsMCwxLC42NzMtLjI0MmMxLjMxNC0uMjY5LDEuNS0uNDQ2LDEuOTQ3LTEuMDEyLjEtLjEyOC4yMjQtLjI4NS4zOS0uNDdabTguNDMtMi43MTNjLS4wNTItLjEyNy0uMTY4LS4zMzQtLjMyOC0uNjIybC0uMDA3LS4wMTJjLS42NTMtMS4xNzEtMi4xODItMy45MTMtMS4zNzUtNS4wNjdhMS44MjksMS44MjksMCwwLDEsMS41ODUtLjU3NSw2LjU3Myw2LjU3MywwLDAsMSwuODY2LjA2NSw3LjE1LDcuMTUsMCwwLDEtLjEwOSwxLjE0OSw5LjU1Miw5LjU1MiwwLDAsMC0uMTMsMS4yMTYsOS4xMzUsOS4xMzUsMCwwLDAsLjEsMS4zNzgsNC44NjksNC44NjksMCwwLDEtLjMwOSwzLjAyN0EzLjY3MSwzLjY3MSwwLDAsMSwyNS4zNzUsMzEuNDczWm0zLjc1Ni00Ljk4NmEyNy42MiwyNy42MiwwLDAsMS0yLjg2NSw2LjM2MWMtLjA0NS0uMDY0LS4xLS4xMzUtLjE3LS4yMmwtLjA2NC0uMDgyLS4wMTgtLjAyMmE1LjExLDUuMTEsMCwwLDAsLjUtMy41OTUsOC42ODYsOC42ODYsMCwwLDEtLjA5Mi0xLjI4Nyw5LjE5NCw5LjE5NCwwLDAsMSwuMTI1LTEuMTU0LDYuOTc0LDYuOTc0LDAsMCwwLC4xMTQtMS40MDcuNDU5LjQ1OSwwLDAsMCwuMDE1LS4xNzksOC41NjYsOC41NjYsMCwwLDAtNC45MDYtNS42MDljNC40NzgtMS4wOTQsNi44LDEuMTM2LDcuNiwyLjE1NC42Ljc2My41MTEsMi41NTMtLjIzOSw1LjAzOVptLTMuMSw3LjRhMS42MTEsMS42MTEsMCwwLDAsLjItLjA2NiwxLjM1NCwxLjM1NCwwLDAsMCwuMTQuMTA3LDQuNDY5LDQuNDY5LDAsMCwwLDMuMTM2LjExNCwxLjcxLDEuNzEsMCwwLDEsLjI4OC0uMDM4LDMuNTcyLDMuNTcyLDAsMCwxLTEuMjY2LjksNC45MTEsNC45MTEsMCwwLDEtMy4xMjMuMjMxYy0uMDU0LS4wMzItLjA2Ni0uMDU1LS4wNjctLjA2MS0uMDU2LS45NzIuMzI1LTEuMDc5LjctMS4xODNaIiBmaWxsPSIjZmZmIi8+JiN4YTsgIDwvZz4mI3hhOzwvc3ZnPg==;" parent="1" vertex="1">
          <mxGeometry x="930" y="489.5" width="91" height="91" as="geometry" />
        </mxCell>
        <mxCell id="1_FS9sSy4IvYd5SgdNEk-21" value="" style="edgeStyle=orthogonalEdgeStyle;rounded=0;orthogonalLoop=1;jettySize=auto;html=1;strokeColor=#3333FF;strokeWidth=2;" parent="1" source="1_FS9sSy4IvYd5SgdNEk-12" target="1_FS9sSy4IvYd5SgdNEk-13" edge="1">
          <mxGeometry relative="1" as="geometry" />
        </mxCell>
        <mxCell id="1_FS9sSy4IvYd5SgdNEk-12" value="&lt;span style=&quot;background-color: rgb(255 , 255 , 255)&quot;&gt;Blob Storage&lt;/span&gt;" style="verticalLabelPosition=bottom;html=1;verticalAlign=top;align=center;strokeColor=none;fillColor=#00BEF2;shape=mxgraph.azure.storage_blob;" parent="1" vertex="1">
          <mxGeometry x="140" y="473" width="50" height="45" as="geometry" />
        </mxCell>
        <mxCell id="1_FS9sSy4IvYd5SgdNEk-13" value="&lt;span style=&quot;background-color: rgb(255 , 255 , 255)&quot;&gt;Storage Queue&lt;/span&gt;" style="verticalLabelPosition=bottom;html=1;verticalAlign=top;align=center;strokeColor=none;fillColor=#00BEF2;shape=mxgraph.azure.storage_queue;" parent="1" vertex="1">
          <mxGeometry x="140" y="590" width="50" height="47" as="geometry" />
        </mxCell>
        <mxCell id="1_FS9sSy4IvYd5SgdNEk-14" value="&lt;font color=&quot;#3333ff&quot;&gt;VNET&lt;/font&gt;" style="verticalLabelPosition=bottom;html=1;verticalAlign=top;align=center;strokeColor=#001DBC;fillColor=#0050ef;shape=mxgraph.azure.virtual_network;pointerEvents=1;fontColor=#ffffff;" parent="1" vertex="1">
          <mxGeometry x="20" y="90" width="50" height="27.500000000000004" as="geometry" />
        </mxCell>
        <mxCell id="1_FS9sSy4IvYd5SgdNEk-15" value="Functions" style="shape=image;verticalLabelPosition=bottom;labelBackgroundColor=#ffffff;verticalAlign=top;aspect=fixed;imageAspect=0;image=data:image/png,iVBORw0KGgoAAAANSUhEUgAAAOEAAADhCAMAAAAJbSJIAAAAkFBMVEX///8AedYAddUAcNQActQAd9UAdNVppuQAb9Tz+v4MfNcAbdOcw+0Aetebwu3a6/n3/P6qze/q8/uFtuhyquTK3/amye600vHS5PdfoeNJlt/g7vq92PPt9v0khdqBs+gzi9wAadIkhto9kN3B2/NVm+GPvut4ruUAgNjM4fWIuelvqeXT5/e31vOWu+o6jtyKlso5AAAL4klEQVR4nO1da3fiOAwNiZ0GKC3QB1AKw7SlpQxs//+/2/KO5cS2pCQOHO7H3Tkht5Ifkq6UILjiiiuuuOKKK64oAOPRDR++SRjxXxRy8bfnm4QRLdlgIh755mDEd8IlKFt93ySM+Iq5DMWzbw5GdNlOGr745mDGh2ASlKLePhrchEyGUb19NGhynbTuPhoMIh5BGY59U7BgxDShuPPNwIIJ14Qz3wxseGbupMm9bwY2/PCcVPznm4ANY54J6++jwR3vxia+fROwYsZyUvHH9/tbMWQ5qVz4fn87HlhOGj35fn8rum8cJxVfvt/fDlbsK6dd3+9vxyPHScWH79d3QMxwUlHv7NoOr4w7qew0fb++A0aM2Dd69f32DphIupPG5+CjQY9+3MtOzVMzO7zQTZgMfL+8C8YhmWE49/3yTrglO6mUZ+GjwTvZhEnN04d7jMk3tjPx0WBJvbHVP324BzkRHN36fnU3DKlOKn98v7ojqCU1GZ+Jj3YXRCetYYp7NXid6P/1iXgYaunDyetgWAWNXKymkRDJSDuhqSU1oaa4m6Pk9/ELjznFV7F1xrgBzDgh7qRiqTymu9iuZhl5u6a+HoL4GNT41rTYV76pj7nZb1dSeBKbrKOjpYS6WOY0JwUp7vExCyIjLxTXf0+uGH+m/0+TdhjGIMWdrlu1PdxVe0lqrcVKbpNWUtPSh8rFr/qrzrNIbyZCsSGtpNaGKe5eejXL6DOoFLftNAsp0jcRWkktfoS/0VcTPdES/oMycauuNNWF7igM5UJPcSsL4fdXHirjF3yqHBL1qkUqqYms9OFzpDyqumrbUiUYqQTvKSbMSXH3AMWKijV/TC76+78JDGUrJ8U9EKqjVpJHBQwgQVJJLVnn/doAWPFf2fR+Iz+wBuE59U24sZkUsmvViqJ0Me2N2YKkkpo5xf1aLUUrQUpJzXKx/lAfKUrNxY0sLkoqqVnTh08hsGJ51eGR1YKEkpqDQvZDdVQYrBWHuZ0goaTmkuIeqo+N30uxYteBIKGk5qaQXcWAYgkl4u6LukkmmVmxOdaEUrqlD4cdQDEj/8XEj/GqtkcfXVJzTh/eA0d9K9hRmzPVgjkBKbqkJt+dX2HcUCiG00JrcJMfJ4L4klobkeIet8qj6GjBYNxGEhSowB1SXBRWAZgs1EMuN2fyibyxYRWygGJh/VB9UITIuMnsgaxWyHiFfJWJ+guyUYgMfOxMcIi8sQl8WqKvupNsYf9GGQCekXNMbPEH56RySnid/lSlGLKtCI4hU94SW1JLSFWlCaAYM2tTQ2hBQ2IW2aVGzStN3hRXkSGrNDVsgDVouoH8Q4UVctpvYnC6woCzS0qGEhXcdw2bTIDvUuu0EOjI1HqDFBOyFb+Fu4sSutQkAupPd9+VBSGj3ESWGR/um8wGHDmpDTDE6r6rVhQkih8oC1JLak6QDXh50SgSCozrCEWQ3aVmQlaZW43HZYKmOMBZkKPUs0IvS23wAtYissDYE4hjYgNml5oJOZ0XXTUvJgWKYg+6qDUSJ5XU3NDOu7UAigkiFLtNkC7K7VIzwRBDwvStcw31FrsGuV1qJhhzcTAF70jxExzdxpvMHrwuNQMsubh/gKLTXXcJCDptUtOynNR2CkCKDjXUBwpB/oSWHITWStOj+r52in8ILsrsUjMgtzacwhegmHl45v5zV6GOKMlJI5fACBjF3PX2SCPI6VIzwTGRAykaPJtIsKywwjnZCKQF+Vb8B9egY01h0ijHSd1HRizdrKhZ0LVoMijnuMfcpZfqZp5tRWhB9x9Al9ScEKPq9XeAYoYVqWuQUlJzATZlfwckG5oVtTXo7iLlxL5ocfeteS0+grfErIFSYl9Cn+xzYrAidFGEBfElNReQMv5QypiyIocgvUvNRJA2t6WXJ5+ibzIbUBuATBBEPfAg21FBANLAJTzKiH1D9+o+wDrrjtoDkU+Ik6nyBz9q4MwRBFqJzbUM1sRkhJJxdEuIfduc/hE1YbSZPvEETYhTN1K71AzgzWMF+ZRorZ3XMW6AGHvwowY5ZSm6gO5M/MdkyB78qIM5mEZnCKNXifKR3+05EwyCzJYDICYQvaAJXyfBOMk8zGYYKxBbOG26sEMPC7DzSTEB7UUN9FZzhFKTHt+n8bTB98CBooyZ2oqHLIEhbJAoq2/DJQbB3TZ0wHalvcvPq6HoMM6FOzECnPftYyYLiGMdk+NI9O1ZYyl5ulgQ6KfKGM0ZONXKaBNzqL8lvOlQt2ocp+SZoLSLIjmzwV5/Y7b8fKoWbKtL+h6URIu34r01a8ycsqeWzKTWOQyVF412wV2pVu0pU6H2qbholjhD6yPAFI0dYHVSnF4Ywk5QrxsyfxJgZTXhjPN46KLZCiKYbyvUirZsjow5imZAMFciNYdv0WbeMFKwOSlrMARw0TA3Oun+QIrcS9QRK8tOyop64Ro0hF/NN0ARKcPJh8VJXWq9uXgAa9AYXwJBXKMwR7WkHOkK0V+CykEvY0sA3X3RtpsixopYBmNxol5I0Hrxgz14xQyHMav45Yx+mQEuKlzmR48gxQKGwxizOZyol0JQk1Ix85cbfBvDCsZgFuCi0nUCOKxjSMEc1GTMizM+swIIhu4jzqGqhkmxacqLM6Je4KKoDRkqoyRrKuyT6binz0R+BBbEnThLuN3k3GXdXsXgpDE5J6SuJfc1eMAdtKL9oMmDqR+KHvWqK0nG+M8MqHOSNmuRSvHDcNz/pXbXqQNIpKA8B2q9ZZtI0VC8IY+3Ai7aoP2hBjG0Iq1mkr/PkA8K4KINav4DzE0hrObtU3IZuk4b0AAIklx0h2+g2aesZ4NwkXodVJMRMuR0yn4DQZdM0BSbnbydlBr13qgW7PCaSME4CtTNaIdc4aJs0Q4KQFByJ7iuQHkRvapznTSh7VuqNkZKfr86TPhLgaI4yXNSYt1ADXxkq4iG/LHaPI2kCOuvx6fQplqXQVBrgcedr3lOGpHerXgX3aE5Va/OiD9dM8eEtKj3piSCv++pdhYjJhnkTFXCKZwPGJXiojs0QZVYdhwdNbuyTRtKUiZBPcvo+Px+tglJ46vLJRjAttvfX3C5U2bLL2JKrRd0Nhc3fecEkGWUDYffyHRS0lf/KiCoKW0dfmWcJf9CXhl2GFVBUOtYkAvbfpE5+osS9QKCndI+EfEF16KFYpaTUqJe6KIlfktoibJiVo8+5VNHlazBA+5UUY55ZlqWRohQIQAEnTZxBkAKLpwaMtYZlW1C1KteNsIyXXQH0LUR5muWM5pp5AJd6wUEi50lmA0wEyR8y7NihkYIn63zQDAI1sBRZzkU9bHX+FqvKg8JW8XP9MzEB7RipuvpzTR4hTO0YEUEg+BJAopZOSVNfoGfHgcIvlX4TT2QZYx/MihqX7lAR73zqnfRNFZgALVeI9OGKKKjXlWUbti0y8G9koLLUKXBaSeyg1xE6ieV4lnln89VR2LqyU+4k6IrV6t0US53wy4T/VYqjaaJbqBGCK9w/ki5eeUuukN6RKNWzwAaIUKt9/70N8o5j8pH86hl1BeZep5QFM4nBUdY/Ro8vsRB6KddVsBIHpLc+NBgH/tYgwd0X5JNa1dbOwhUjRA1hd/eDoX0Z8EtBvNFa64lB1X5BVnh/DpvLeaevipngTqO1ten78qEohE6jw+l49BMOylL4VxXpA/rRtvjRzZLQ3pmcnWfEqsSqcCD1wpTV6SGUxQwM72OSFW2C2tJqRW6Jyc9ly/BI3HSCMnY442yRJyclK5wrjVO2Qe6wrneODops6+3vjg6Ke37FfXH5KAsrvoDvpXhoBFitMLUHPvKNlnhXHs025cb9e6w1wiV/0FUb9iNiaQqnM8A492dVPtO+uVgpxEqYTJKbbDdSYnp0bPAeJNjk+Iio94dthqhyOHjsGeLTWWbpnA+E4wTqsL5XLDRCFG/n3UemMqcLxddCu4jmsL5fLCMGxSF8xlhJi826t1hKC436t3hQVxs1LtDd8aegVJzDP9ebtS7w9cl1noVcD7pehZ4uujLzAaXfRJucNkHxRVXXHHFFVdcUXP8D6aBtJWrwPUbAAAAAElFTkSuQmCC;" parent="1" vertex="1">
          <mxGeometry x="390" y="510" width="50" height="50" as="geometry" />
        </mxCell>
        <mxCell id="1_FS9sSy4IvYd5SgdNEk-16" value="API Management" style="shape=image;verticalLabelPosition=bottom;labelBackgroundColor=#ffffff;verticalAlign=top;aspect=fixed;imageAspect=0;image=data:image/svg+xml,PHN2ZyB4bWxucz0iaHR0cDovL3d3dy53My5vcmcvMjAwMC9zdmciIHhtbG5zOnhsaW5rPSJodHRwOi8vd3d3LnczLm9yZy8xOTk5L3hsaW5rIiB2ZXJzaW9uPSIxLjEiIGlkPSJMYXllcl8xIiB4PSIwcHgiIHk9IjBweCIgd2lkdGg9IjUwcHgiIGhlaWdodD0iNTBweCIgdmlld0JveD0iMCAwIDUwIDUwIiBlbmFibGUtYmFja2dyb3VuZD0ibmV3IDAgMCA1MCA1MCIgeG1sOnNwYWNlPSJwcmVzZXJ2ZSI+JiN4YTs8cGF0aCBmaWxsPSIjNTlCNEQ5IiBkPSJNMjAuNSwzMi41aC04LjlsMCwwYy00LjQsMC04LTMuNi04LTguMXMzLjQtOC4xLDgtOC4xYzAuOCwwLDEuNywwLjIsMi43LDAuM2wxLjcsMC41bDAuNS0xLjcgIEMxOC4xLDEwLjIsMjMuMSw3LDI4LjgsN2M2LjksMCwxMi4yLDUuMywxMi4yLDEyLjJjMCwxLjEtMC4yLDIuMi0wLjUsMy4zTDM5LjgsMjVsMi43LTAuM2MwLjIsMCwwLjMsMCwwLjUsMGMyLDAsMy42LDEuNywzLjYsMy42ICBzLTEuNCwzLjMtMy4xLDMuNmMwLDAtOC42LDAtOC45LDBjLTAuMy0yLjUtMS42LTQuNy0zLjMtNi40QzI5LjEsMjMuMywyNi4xLDIyLDIzLDIyYy0yLjIsMC00LjQsMC42LTYuMSwxLjdsMS45LDMgIGMxLjQtMC44LDIuOC0xLjEsNC40LTEuMWMyLjIsMCw0LjQsMC44LDUuOCwyLjVjMS42LDEuNiwyLjUsMy42LDIuNSw1LjhzLTAuOCw0LjQtMi41LDUuOGMtMS42LDEuNy0zLjYsMi41LTUuOCwyLjUgIGMtMS42LDAtMy4xLTAuNS00LjQtMS40bC0xLjksM2MxLjksMS4xLDQuMSwxLjksNi4xLDEuOWMzLjEsMCw2LjEtMS4xLDguMy0zLjRjMS45LTEuOSwzLTQuNCwzLjMtN2MwLjUsMCw5LjEsMCw5LjEsMGgwLjIgIGMzLjYtMC4zLDYuMy0zLjQsNi4zLTcuMmMwLTMtMi44LTUuOC02LjEtNi40YzAuMi0wLjYsMC4yLTAuOSwwLjItMS45YzAtOC44LTYuMi0xNS44LTE2LjEtMTUuOGwwLDBjLTYuMywwLTExLjksMy42LTE0LjIsOS40ICBjLTAuOCwwLTEuNC0wLjMtMi4zLTAuM0M1LjIsMTMsMCwxOCwwLDI0LjRjMCw2LjMsNS4yLDExLjMsMTEuNCwxMS4zaDkuOEwyMC41LDMyLjV6Ii8+JiN4YTs8Y2lyY2xlIGZpbGw9IiM2ODIxN0EiIGN4PSIyMi44IiBjeT0iMzMuOCIgcj0iNS42Ii8+JiN4YTs8L3N2Zz4=;" parent="1" vertex="1">
          <mxGeometry x="60" y="325" width="50" height="50" as="geometry" />
        </mxCell>
        <mxCell id="1_FS9sSy4IvYd5SgdNEk-18" value="Application Gateway" style="shape=image;verticalLabelPosition=bottom;labelBackgroundColor=#ffffff;verticalAlign=top;aspect=fixed;imageAspect=0;image=data:image/svg+xml,PHN2ZyB4bWxucz0iaHR0cDovL3d3dy53My5vcmcvMjAwMC9zdmciIHhtbG5zOnhsaW5rPSJodHRwOi8vd3d3LnczLm9yZy8xOTk5L3hsaW5rIiB2ZXJzaW9uPSIxLjEiIGlkPSJMYXllcl8xIiB4PSIwcHgiIHk9IjBweCIgd2lkdGg9IjUwcHgiIGhlaWdodD0iNTBweCIgdmlld0JveD0iMCAwIDUwIDUwIiBlbmFibGUtYmFja2dyb3VuZD0ibmV3IDAgMCA1MCA1MCIgeG1sOnNwYWNlPSJwcmVzZXJ2ZSI+JiN4YTs8cGF0aCBmaWxsPSIjN0ZCQTAwIiBkPSJNMjUsNTBjLTEuMiwwLTIuNC0wLjUtMy4zLTEuNEwxLjQsMjguM0MwLjUsMjcuNCwwLDI2LjIsMCwyNXMwLjUtMi40LDEuNC0zLjNMMjEuNywxLjQgIEMyMi42LDAuNSwyMy44LDAsMjUsMHMyLjQsMC41LDMuMywxLjRsMjAuNCwyMC40YzAuOSwwLjksMS40LDIsMS40LDMuM2MwLDEuMi0wLjUsMi40LTEuNCwzLjNMMjguMyw0OC42QzI3LjQsNDkuNSwyNi4yLDUwLDI1LDUwIi8+JiN4YTs8cGF0aCBmaWxsPSIjRkZGRkZGIiBkPSJNMjkuNzM4LDE4LjU4NGMtMS4zOTgsMS4wNjktMy4wNDQsMS41ODktNC42OCwxLjU4OWMtMi4zMiwwLTQuNjE0LTEuMDQyLTYuMTMxLTMuMDI1ICBjLTIuNTktMy4zODItMS45NTEtOC4yMTksMS40MzctMTAuODExYzEuMzk3LTEuMDc1LDMuMDQ2LTEuNTg4LDQuNjc5LTEuNTg4YzIuMzIsMCw0LjYxNSwxLjA0Miw2LjEzMSwzLjAyNiAgQzMzLjc2NSwxMS4xNTgsMzMuMTE5LDE1Ljk5NiwyOS43MzgsMTguNTg0Ii8+JiN4YTs8cGF0aCBvcGFjaXR5PSIwLjE1IiBmaWxsPSIjRkZGRkZGIiBlbmFibGUtYmFja2dyb3VuZD0ibmV3ICAgICIgZD0iTTI4LjMsMS40QzI3LjQsMC41LDI2LjIsMCwyNSwwcy0yLjQsMC41LTMuMywxLjRMMS40LDIxLjcgIEMwLjUsMjIuNiwwLDIzLjgsMCwyNXMwLjUsMi40LDEuNCwzLjNsMTEuNSwxMS41TDM0LjYsNy43TDI4LjMsMS40eiIvPiYjeGE7PHBvbHlnb24gZmlsbD0iI0ZGRkZGRiIgcG9pbnRzPSIyNSw0NS42IDMxLjYsMzkgMjYuOSwzOSAyNi45LDE5LjE0OSAyMywxOS4xNDkgMjMsMzkgMTguNCwzOSAiLz4mI3hhOzxwb2x5Z29uIGZpbGw9IiNGRkZGRkYiIHBvaW50cz0iMzkuMzMsMzMuNDggMzkuMzMsMjQuMTQ2IDM2LjA3NywyNy4zOTkgMjcuNjMzLDE4Ljk1NSAyNC44MDUsMjEuNzgzIDMzLjI0OSwzMC4yMjcgMjkuOTk2LDMzLjQ4ICAgIi8+JiN4YTs8cG9seWdvbiBmaWxsPSIjRkZGRkZGIiBwb2ludHM9IjEwLjY4NSwzMy41MTUgMjAuMDE4LDMzLjUxNSAxNi43NjYsMzAuMjYzIDI1LjQ0NywyMS41ODIgMjIuNjE4LDE4Ljc1MyAxMy45MzcsMjcuNDM0ICAgMTAuNjg1LDI0LjE4MiAiLz4mI3hhOzxwYXRoIGZpbGw9IiM1OUI0RDkiIGQ9Ik0yOS4xMTUsMTcuNzcxYy0xLjIxMiwwLjkyNy0yLjY0LDEuMzc4LTQuMDU4LDEuMzc4Yy0yLjAxMiwwLTQuMDAyLTAuOTAzLTUuMzE2LTIuNjIzICBjLTIuMjQ2LTIuOTMzLTEuNjkyLTcuMTI3LDEuMjQ2LTkuMzc1YzEuMjEyLTAuOTMyLDIuNjQxLTEuMzc3LDQuMDU3LTEuMzc3YzIuMDEyLDAsNC4wMDIsMC45MDMsNS4zMTYsMi42MjQgIEMzMi42MDgsMTEuMzMxLDMyLjA0OCwxNS41MjYsMjkuMTE1LDE3Ljc3MSIvPiYjeGE7PHBhdGggZmlsbD0iI0ZGRkZGRiIgZD0iTTI3Ljg4NiwxMy42MzVjMC40ODYsMC42MzQsMS4zODgsMC43NDgsMi4wMTgsMC4yNjljMC4wMzMtMC4wMjUsMC4wNTgtMC4wNTYsMC4wODgtMC4wODMgIGMwLjY0NSwwLjQ1NCwxLjA5MiwwLjc1NCwxLjM0NCwwLjkyNWMwLjA3NS0wLjE5MywwLjEyNi0wLjM3OSwwLjE3OS0wLjU3M2MtMC4yNjYtMC4xOTgtMC42MjctMC40NzYtMS4xNDgtMC44OTggIGMwLjE3MS0wLjQ0OSwwLjExNy0wLjk3NC0wLjE5NS0xLjM4NGMtMC40NDctMC41NzgtMS4yMzgtMC43MjUtMS44NTYtMC4zNjhjLTAuNjgxLTAuNjExLTEuNDMtMS4zMTItMi4yMTktMi4wOTYgIGMyLjQ1Mi0xLjMxOSw0LjE5NC0xLjEyNiw0LjE5NC0xLjEyNmMtMC4yOTEtMC4zNzEtMC42MTctMC42OTYtMC45NjUtMC45ODljLTEuMDM0LTAuMTYtMi42NC0wLjE0Mi00LjQ3NiwwLjgzNGwtMC4wMDEtMC4wMDFoMCAgYy0wLjYxMi0wLjY0LTEuMjM0LTEuMzI3LTEuODY4LTIuMDYzYy0wLjMwMywwLjA5Ny0wLjYsMC4yMTctMC44ODYsMC4zNmMwLjQ2OCwwLjc2NiwxLjA5OCwxLjUzOCwxLjgwNywyLjI5MmwwLDAgIGMwLjAwMSwwLjAwMiwwLjAwMywwLjAwMywwLjAwNSwwLjAwNWMtMC41OTIsMC40MTQtMS4yNSwwLjk2Ny0xLjg1OCwxLjYwOWMtMC4wNzgsMC4wODMtMC4xNTIsMC4xNjYtMC4yMjUsMC4yNDkgIGMtMC4zNjMtMC4wNzYtMC43NDUtMC4wNTQtMS4xMDIsMC4wNzVjLTAuNjA2LTEuMzA3LTAuNTU3LTIuMzU3LTAuNDYxLTIuODk4Yy0wLjI2MywwLjI3Ni0wLjUwOSwwLjU2NS0wLjcyLDAuODc0ICBjLTAuMTU4LDAuNjQ2LTAuMjAzLDEuNTc4LDAuMjY0LDIuNzAxYy0wLjU0LDAuNzA3LTAuNTY2LDEuNzA5LTAuMDAxLDIuNDQ5YzAuMDQ3LDAuMDYxLDAuMDk3LDAuMTE4LDAuMTUsMC4xNzMgIGMtMC4yNDYsMC44MzktMC4zNTcsMS42NDktMC4zOTEsMi4zNDRjMC4wNjMsMC4wODYsMC4wNjMsMC4xNTYsMC4xMjYsMC4yNGMwLjMyMSwwLjQxMSwwLjcyNCwwLjc1OCwxLjExMywxLjA3MiAgYy0wLjA0OC0wLjczNiwwLjAwNC0xLjgyMSwwLjQ1OS0zLjA0M2MwLjMxNCwwLjAyNCwwLjYzMy0wLjAyNiwwLjkzMi0wLjE1MWMwLjE3MSwwLjE1MSwwLjM1LDAuMzAzLDAuNTQyLDAuNDU4ICBjMC42NTYsMC41MiwxLjMxMSwwLjkyNCwxLjk0OSwxLjI0MmMtMC4wMzMsMC4zMjUsMC4wNDgsMC42NjIsMC4yNTksMC45NDFjMC40NTEsMC41ODIsMS4yODYsMC42OTEsMS44NjgsMC4yNDYgIGMwLjEyMS0wLjA5MywwLjIxNy0wLjIwNSwwLjI5Ni0wLjMyNWMxLjA0MSwwLjIzMiwxLjk1LDAuMjczLDIuNjI0LDAuMjczYzAuMTAzLDAsMC41ODItMC42NTIsMC44NTctMS4wNTYgIGMtMC40MSwwLjA4Ni0xLjYyOCwwLjI1My0zLjI5MS0wLjIyNWMtMC4wNC0wLjE4Ny0wLjExNy0wLjM2OC0wLjI0LTAuNTNjLTAuNDIyLTAuNTU0LTEuMTk1LTAuNjc0LTEuNzcxLTAuMzAzICBjLTAuNTc4LTAuMzE0LTEuMTg0LTAuNzA3LTEuODA4LTEuMjAxYy0wLjEyNi0wLjEtMC4yNDctMC4xOTktMC4zNjQtMC4yOTljMC4zODItMC42MDEsMC40MjItMS4zNzIsMC4wODUtMi4wMiAgYzAuMDc3LTAuMDc3LDAuMTUyLTAuMTUzLDAuMjMzLTAuMjI5YzAuNjE4LTAuNTc4LDEuMi0xLjA0LDEuNzQ0LTEuNDExYy0wLjAyMi0wLjAyLTAuMDQyLTAuMDQyLTAuMDYzLTAuMDYyICBjMC4wMjIsMC4wMiwwLjA0MiwwLjA0MSwwLjA2NCwwLjA2MWMwLDAsMCwwLTAuMDAxLDBjMC44MzUsMC43NzIsMS43MiwxLjUwNCwyLjU1OSwyLjE1OCAgQzI3LjUxNCwxMi42MjEsMjcuNTQ5LDEzLjE5NCwyNy44ODYsMTMuNjM1eiIvPiYjeGE7PC9zdmc+;" parent="1" vertex="1">
          <mxGeometry x="250" y="200" width="50" height="50" as="geometry" />
        </mxCell>
        <mxCell id="1_FS9sSy4IvYd5SgdNEk-24" value="" style="edgeStyle=orthogonalEdgeStyle;html=1;endArrow=block;elbow=vertical;startArrow=block;startFill=1;endFill=1;strokeColor=#3333FF;rounded=0;strokeWidth=2;entryX=0;entryY=0.5;entryDx=0;entryDy=0;exitX=1;exitY=0.5;exitDx=0;exitDy=0;" parent="1" source="1_FS9sSy4IvYd5SgdNEk-16" edge="1">
          <mxGeometry width="100" relative="1" as="geometry">
            <mxPoint x="130" y="349.5" as="sourcePoint" />
            <mxPoint x="360" y="350" as="targetPoint" />
          </mxGeometry>
        </mxCell>
        <mxCell id="1_FS9sSy4IvYd5SgdNEk-25" value="" style="edgeStyle=orthogonalEdgeStyle;html=1;endArrow=block;elbow=vertical;startArrow=block;startFill=1;endFill=1;strokeColor=#3333FF;rounded=0;exitX=1;exitY=0.5;exitDx=0;exitDy=0;entryX=0;entryY=0.5;entryDx=0;entryDy=0;strokeWidth=2;" parent="1" target="1_FS9sSy4IvYd5SgdNEk-8" edge="1">
          <mxGeometry width="100" relative="1" as="geometry">
            <mxPoint x="410" y="350" as="sourcePoint" />
            <mxPoint x="620" y="430" as="targetPoint" />
          </mxGeometry>
        </mxCell>
        <mxCell id="1_FS9sSy4IvYd5SgdNEk-27" value="" style="edgeStyle=orthogonalEdgeStyle;html=1;endArrow=block;elbow=vertical;startArrow=block;startFill=1;endFill=1;strokeColor=#3333FF;rounded=1;strokeWidth=2;" parent="1" source="1_FS9sSy4IvYd5SgdNEk-18" target="1_FS9sSy4IvYd5SgdNEk-8" edge="1">
          <mxGeometry width="100" relative="1" as="geometry">
            <mxPoint x="390" y="220" as="sourcePoint" />
            <mxPoint x="490" y="220" as="targetPoint" />
          </mxGeometry>
        </mxCell>
        <mxCell id="1_FS9sSy4IvYd5SgdNEk-28" value="" style="edgeStyle=orthogonalEdgeStyle;html=1;endArrow=block;elbow=vertical;startArrow=block;startFill=1;endFill=1;strokeColor=#3333FF;rounded=1;strokeWidth=2;" parent="1" target="1_FS9sSy4IvYd5SgdNEk-10" edge="1">
          <mxGeometry width="100" relative="1" as="geometry">
            <mxPoint x="800" y="340" as="sourcePoint" />
            <mxPoint x="900" y="340" as="targetPoint" />
          </mxGeometry>
        </mxCell>
        <mxCell id="1_FS9sSy4IvYd5SgdNEk-32" value="" style="edgeStyle=orthogonalEdgeStyle;html=1;endArrow=block;elbow=vertical;startArrow=block;startFill=1;endFill=1;strokeColor=#3333FF;rounded=1;entryX=0;entryY=0.5;entryDx=0;entryDy=0;strokeWidth=2;" parent="1" target="1_FS9sSy4IvYd5SgdNEk-15" edge="1">
          <mxGeometry width="100" relative="1" as="geometry">
            <mxPoint x="200" y="494" as="sourcePoint" />
            <mxPoint x="330" y="490" as="targetPoint" />
          </mxGeometry>
        </mxCell>
        <mxCell id="1_FS9sSy4IvYd5SgdNEk-33" value="" style="edgeStyle=orthogonalEdgeStyle;html=1;endArrow=block;elbow=vertical;startArrow=block;startFill=1;endFill=1;strokeColor=#3333FF;rounded=1;entryX=0;entryY=0.75;entryDx=0;entryDy=0;strokeWidth=2;" parent="1" target="1_FS9sSy4IvYd5SgdNEk-15" edge="1">
          <mxGeometry width="100" relative="1" as="geometry">
            <mxPoint x="200" y="611.5" as="sourcePoint" />
            <mxPoint x="375" y="642.5" as="targetPoint" />
          </mxGeometry>
        </mxCell>
        <mxCell id="1_FS9sSy4IvYd5SgdNEk-37" value="" style="edgeStyle=orthogonalEdgeStyle;html=1;endArrow=block;elbow=vertical;startArrow=block;startFill=1;endFill=1;strokeColor=#3333FF;rounded=0;strokeWidth=2;" parent="1" target="1_FS9sSy4IvYd5SgdNEk-10" edge="1">
          <mxGeometry width="100" relative="1" as="geometry">
            <mxPoint x="450" y="535" as="sourcePoint" />
            <mxPoint x="550" y="534.5" as="targetPoint" />
          </mxGeometry>
        </mxCell>
        <mxCell id="1_FS9sSy4IvYd5SgdNEk-39" value="Subnet1" style="rounded=0;whiteSpace=wrap;html=1;strokeColor=#001DBC;fillColor=#0050ef;fontColor=#ffffff;" parent="1" vertex="1">
          <mxGeometry x="780" y="780" width="120" height="20" as="geometry" />
        </mxCell>
        <mxCell id="1_FS9sSy4IvYd5SgdNEk-40" value="beta.winfielddatasilo.com" style="rounded=1;whiteSpace=wrap;html=1;strokeColor=#3333FF;" parent="1" vertex="1">
          <mxGeometry x="-210" y="210" width="170" height="30" as="geometry" />
        </mxCell>
        <mxCell id="1_FS9sSy4IvYd5SgdNEk-42" value="beta.data.winfielddatasilo.com" style="text;html=1;strokeColor=none;fillColor=none;align=center;verticalAlign=middle;whiteSpace=wrap;rounded=0;" parent="1" vertex="1">
          <mxGeometry x="190" y="355" width="100" height="20" as="geometry" />
        </mxCell>
        <mxCell id="1_FS9sSy4IvYd5SgdNEk-44" style="edgeStyle=orthogonalEdgeStyle;rounded=1;orthogonalLoop=1;jettySize=auto;html=1;entryX=0;entryY=0.5;entryDx=0;entryDy=0;strokeColor=#3333FF;strokeWidth=2;" parent="1" source="1_FS9sSy4IvYd5SgdNEk-43" target="1_FS9sSy4IvYd5SgdNEk-40" edge="1">
          <mxGeometry relative="1" as="geometry" />
        </mxCell>
        <mxCell id="1_FS9sSy4IvYd5SgdNEk-43" value="Users" style="outlineConnect=0;fontColor=#232F3E;gradientColor=none;strokeColor=#232F3E;fillColor=#ffffff;dashed=0;verticalLabelPosition=bottom;verticalAlign=top;align=center;html=1;fontSize=12;fontStyle=0;aspect=fixed;shape=mxgraph.aws4.resourceIcon;resIcon=mxgraph.aws4.users;" parent="1" vertex="1">
          <mxGeometry x="-340" y="195" width="60" height="60" as="geometry" />
        </mxCell>
        <mxCell id="1_FS9sSy4IvYd5SgdNEk-46" value="" style="edgeStyle=orthogonalEdgeStyle;html=1;endArrow=block;elbow=vertical;startArrow=block;startFill=1;endFill=1;strokeColor=#3333FF;rounded=0;entryX=0;entryY=0.5;entryDx=0;entryDy=0;exitX=1;exitY=0.5;exitDx=0;exitDy=0;strokeWidth=2;" parent="1" source="1_FS9sSy4IvYd5SgdNEk-40" target="1_FS9sSy4IvYd5SgdNEk-18" edge="1">
          <mxGeometry width="100" relative="1" as="geometry">
            <mxPoint x="20" y="220" as="sourcePoint" />
            <mxPoint x="120" y="220" as="targetPoint" />
          </mxGeometry>
        </mxCell>
        <mxCell id="1_FS9sSy4IvYd5SgdNEk-38" value="Network Security Group" style="shape=image;verticalLabelPosition=bottom;labelBackgroundColor=#ffffff;verticalAlign=top;aspect=fixed;imageAspect=0;image=data:image/svg+xml,PHN2ZyB4bWxucz0iaHR0cDovL3d3dy53My5vcmcvMjAwMC9zdmciIHhtbG5zOnhsaW5rPSJodHRwOi8vd3d3LnczLm9yZy8xOTk5L3hsaW5rIiB4bWxuczpzdmc9Imh0dHA6Ly93d3cudzMub3JnLzIwMDAvc3ZnIiBjbGFzcz0iZnhzLXBvcnRhbC1zdmciIGlkPSJGeFN5bWJvbDAtMDZmIiByb2xlPSJwcmVzZW50YXRpb24iIHZpZXdCb3g9IjAgMCA1MCA1MCIgZm9jdXNhYmxlPSJmYWxzZSI+JiN4YTs8Zz4mI3hhOzx0aXRsZS8+JiN4YTs8cGF0aCBjbGFzcz0ibXNwb3J0YWxmeC1zdmctYzE5IiBmaWxsPSIjMDA3MmM2IiBkPSJNIDM4LjIgNiBjIC0xMSAtMS4yIC0xMi45IC02IC0xMi45IC02IFMgMjIuOCA2LjIgNyA2LjIgdiAyNS42IGMgMCAzLjEgMS43IDYgNC4xIDguNSBjIDUuNCA1LjcgMTQuMiA5LjYgMTQuMiA5LjYgcyAxOC4zIC04IDE4LjMgLTE4LjEgViA2LjIgYyAtMiAwIC0zLjggLTAuMSAtNS40IC0wLjIgWiIvPiYjeGE7PHBhdGggY2xhc3M9Im1zcG9ydGFsZngtc3ZnLWMxNiIgb3BhY2l0eT0iMC40IiBmaWxsPSIjMzk5OWM2IiBkPSJNIDI5LjkgMTYuNSBMIDM4LjIgNiBjIC0xMSAtMS4yIC0xMi45IC02IC0xMi45IC02IFMgMjIuOCA2LjIgNyA2LjIgdiAyNS42IGMgMCAzLjEgMS43IDYgNC4xIDguNSBsIDYuMiAtNy44IGwgMTIuNiAtMTYgWiIvPiYjeGE7PGcgY2xhc3M9Im1zcG9ydGFsZngtc3ZnLWMwMSIgZmlsbD0iI2ZmZmZmZiI+JiN4YTs8cGF0aCBvcGFjaXR5PSIwLjMiIGQ9Ik0gMTAuOCAyNC40IHYgNi4xIGMgMCAyLjUgMS40IDQuOCAzLjMgNi44IGMgNC4zIDQuNiAxMS4zIDcuNiAxMS4zIDcuNiBWIDI0LjQgSCAxMC44IFoiLz4mI3hhOzxwYXRoIG9wYWNpdHk9IjAuNyIgZD0iTSAyNS4zIDQ0LjkgcyAxNC42IC02LjQgMTQuNiAtMTQuNCB2IC02LjEgSCAyNS4zIHYgMjAuNSBaIG0gMCAtMzkuOCBzIC0yIDUgLTE0LjYgNSB2IDE0LjMgaCAxNC42IFYgNS4xIFoiLz4mI3hhOzxwYXRoIG9wYWNpdHk9IjAuMyIgZD0iTSAzNS41IDkuOSBjIC04LjcgLTEgLTEwLjIgLTQuNyAtMTAuMiAtNC43IHYgMTkuMiBoIDE0LjYgViAxMC4xIGMgLTEuNiAwIC0zLjEgLTAuMSAtNC40IC0wLjIgWiIvPiYjeGE7PC9nPiYjeGE7PC9nPiYjeGE7PC9zdmc+;" parent="1" vertex="1">
          <mxGeometry x="680" y="100" width="50" height="50" as="geometry" />
        </mxCell>
        <mxCell id="0F00mVCZuprGEO0klOKh-3" value="betaapi.winfielddatasilo.com" style="rounded=1;whiteSpace=wrap;html=1;strokeColor=#3333FF;" vertex="1" parent="1">
          <mxGeometry x="-230" y="335" width="170" height="30" as="geometry" />
        </mxCell>
        <mxCell id="0F00mVCZuprGEO0klOKh-5" value="Application Gateway" style="shape=image;verticalLabelPosition=bottom;labelBackgroundColor=#ffffff;verticalAlign=top;aspect=fixed;imageAspect=0;image=data:image/svg+xml,PHN2ZyB4bWxucz0iaHR0cDovL3d3dy53My5vcmcvMjAwMC9zdmciIHhtbG5zOnhsaW5rPSJodHRwOi8vd3d3LnczLm9yZy8xOTk5L3hsaW5rIiB2ZXJzaW9uPSIxLjEiIGlkPSJMYXllcl8xIiB4PSIwcHgiIHk9IjBweCIgd2lkdGg9IjUwcHgiIGhlaWdodD0iNTBweCIgdmlld0JveD0iMCAwIDUwIDUwIiBlbmFibGUtYmFja2dyb3VuZD0ibmV3IDAgMCA1MCA1MCIgeG1sOnNwYWNlPSJwcmVzZXJ2ZSI+JiN4YTs8cGF0aCBmaWxsPSIjN0ZCQTAwIiBkPSJNMjUsNTBjLTEuMiwwLTIuNC0wLjUtMy4zLTEuNEwxLjQsMjguM0MwLjUsMjcuNCwwLDI2LjIsMCwyNXMwLjUtMi40LDEuNC0zLjNMMjEuNywxLjQgIEMyMi42LDAuNSwyMy44LDAsMjUsMHMyLjQsMC41LDMuMywxLjRsMjAuNCwyMC40YzAuOSwwLjksMS40LDIsMS40LDMuM2MwLDEuMi0wLjUsMi40LTEuNCwzLjNMMjguMyw0OC42QzI3LjQsNDkuNSwyNi4yLDUwLDI1LDUwIi8+JiN4YTs8cGF0aCBmaWxsPSIjRkZGRkZGIiBkPSJNMjkuNzM4LDE4LjU4NGMtMS4zOTgsMS4wNjktMy4wNDQsMS41ODktNC42OCwxLjU4OWMtMi4zMiwwLTQuNjE0LTEuMDQyLTYuMTMxLTMuMDI1ICBjLTIuNTktMy4zODItMS45NTEtOC4yMTksMS40MzctMTAuODExYzEuMzk3LTEuMDc1LDMuMDQ2LTEuNTg4LDQuNjc5LTEuNTg4YzIuMzIsMCw0LjYxNSwxLjA0Miw2LjEzMSwzLjAyNiAgQzMzLjc2NSwxMS4xNTgsMzMuMTE5LDE1Ljk5NiwyOS43MzgsMTguNTg0Ii8+JiN4YTs8cGF0aCBvcGFjaXR5PSIwLjE1IiBmaWxsPSIjRkZGRkZGIiBlbmFibGUtYmFja2dyb3VuZD0ibmV3ICAgICIgZD0iTTI4LjMsMS40QzI3LjQsMC41LDI2LjIsMCwyNSwwcy0yLjQsMC41LTMuMywxLjRMMS40LDIxLjcgIEMwLjUsMjIuNiwwLDIzLjgsMCwyNXMwLjUsMi40LDEuNCwzLjNsMTEuNSwxMS41TDM0LjYsNy43TDI4LjMsMS40eiIvPiYjeGE7PHBvbHlnb24gZmlsbD0iI0ZGRkZGRiIgcG9pbnRzPSIyNSw0NS42IDMxLjYsMzkgMjYuOSwzOSAyNi45LDE5LjE0OSAyMywxOS4xNDkgMjMsMzkgMTguNCwzOSAiLz4mI3hhOzxwb2x5Z29uIGZpbGw9IiNGRkZGRkYiIHBvaW50cz0iMzkuMzMsMzMuNDggMzkuMzMsMjQuMTQ2IDM2LjA3NywyNy4zOTkgMjcuNjMzLDE4Ljk1NSAyNC44MDUsMjEuNzgzIDMzLjI0OSwzMC4yMjcgMjkuOTk2LDMzLjQ4ICAgIi8+JiN4YTs8cG9seWdvbiBmaWxsPSIjRkZGRkZGIiBwb2ludHM9IjEwLjY4NSwzMy41MTUgMjAuMDE4LDMzLjUxNSAxNi43NjYsMzAuMjYzIDI1LjQ0NywyMS41ODIgMjIuNjE4LDE4Ljc1MyAxMy45MzcsMjcuNDM0ICAgMTAuNjg1LDI0LjE4MiAiLz4mI3hhOzxwYXRoIGZpbGw9IiM1OUI0RDkiIGQ9Ik0yOS4xMTUsMTcuNzcxYy0xLjIxMiwwLjkyNy0yLjY0LDEuMzc4LTQuMDU4LDEuMzc4Yy0yLjAxMiwwLTQuMDAyLTAuOTAzLTUuMzE2LTIuNjIzICBjLTIuMjQ2LTIuOTMzLTEuNjkyLTcuMTI3LDEuMjQ2LTkuMzc1YzEuMjEyLTAuOTMyLDIuNjQxLTEuMzc3LDQuMDU3LTEuMzc3YzIuMDEyLDAsNC4wMDIsMC45MDMsNS4zMTYsMi42MjQgIEMzMi42MDgsMTEuMzMxLDMyLjA0OCwxNS41MjYsMjkuMTE1LDE3Ljc3MSIvPiYjeGE7PHBhdGggZmlsbD0iI0ZGRkZGRiIgZD0iTTI3Ljg4NiwxMy42MzVjMC40ODYsMC42MzQsMS4zODgsMC43NDgsMi4wMTgsMC4yNjljMC4wMzMtMC4wMjUsMC4wNTgtMC4wNTYsMC4wODgtMC4wODMgIGMwLjY0NSwwLjQ1NCwxLjA5MiwwLjc1NCwxLjM0NCwwLjkyNWMwLjA3NS0wLjE5MywwLjEyNi0wLjM3OSwwLjE3OS0wLjU3M2MtMC4yNjYtMC4xOTgtMC42MjctMC40NzYtMS4xNDgtMC44OTggIGMwLjE3MS0wLjQ0OSwwLjExNy0wLjk3NC0wLjE5NS0xLjM4NGMtMC40NDctMC41NzgtMS4yMzgtMC43MjUtMS44NTYtMC4zNjhjLTAuNjgxLTAuNjExLTEuNDMtMS4zMTItMi4yMTktMi4wOTYgIGMyLjQ1Mi0xLjMxOSw0LjE5NC0xLjEyNiw0LjE5NC0xLjEyNmMtMC4yOTEtMC4zNzEtMC42MTctMC42OTYtMC45NjUtMC45ODljLTEuMDM0LTAuMTYtMi42NC0wLjE0Mi00LjQ3NiwwLjgzNGwtMC4wMDEtMC4wMDFoMCAgYy0wLjYxMi0wLjY0LTEuMjM0LTEuMzI3LTEuODY4LTIuMDYzYy0wLjMwMywwLjA5Ny0wLjYsMC4yMTctMC44ODYsMC4zNmMwLjQ2OCwwLjc2NiwxLjA5OCwxLjUzOCwxLjgwNywyLjI5MmwwLDAgIGMwLjAwMSwwLjAwMiwwLjAwMywwLjAwMywwLjAwNSwwLjAwNWMtMC41OTIsMC40MTQtMS4yNSwwLjk2Ny0xLjg1OCwxLjYwOWMtMC4wNzgsMC4wODMtMC4xNTIsMC4xNjYtMC4yMjUsMC4yNDkgIGMtMC4zNjMtMC4wNzYtMC43NDUtMC4wNTQtMS4xMDIsMC4wNzVjLTAuNjA2LTEuMzA3LTAuNTU3LTIuMzU3LTAuNDYxLTIuODk4Yy0wLjI2MywwLjI3Ni0wLjUwOSwwLjU2NS0wLjcyLDAuODc0ICBjLTAuMTU4LDAuNjQ2LTAuMjAzLDEuNTc4LDAuMjY0LDIuNzAxYy0wLjU0LDAuNzA3LTAuNTY2LDEuNzA5LTAuMDAxLDIuNDQ5YzAuMDQ3LDAuMDYxLDAuMDk3LDAuMTE4LDAuMTUsMC4xNzMgIGMtMC4yNDYsMC44MzktMC4zNTcsMS42NDktMC4zOTEsMi4zNDRjMC4wNjMsMC4wODYsMC4wNjMsMC4xNTYsMC4xMjYsMC4yNGMwLjMyMSwwLjQxMSwwLjcyNCwwLjc1OCwxLjExMywxLjA3MiAgYy0wLjA0OC0wLjczNiwwLjAwNC0xLjgyMSwwLjQ1OS0zLjA0M2MwLjMxNCwwLjAyNCwwLjYzMy0wLjAyNiwwLjkzMi0wLjE1MWMwLjE3MSwwLjE1MSwwLjM1LDAuMzAzLDAuNTQyLDAuNDU4ICBjMC42NTYsMC41MiwxLjMxMSwwLjkyNCwxLjk0OSwxLjI0MmMtMC4wMzMsMC4zMjUsMC4wNDgsMC42NjIsMC4yNTksMC45NDFjMC40NTEsMC41ODIsMS4yODYsMC42OTEsMS44NjgsMC4yNDYgIGMwLjEyMS0wLjA5MywwLjIxNy0wLjIwNSwwLjI5Ni0wLjMyNWMxLjA0MSwwLjIzMiwxLjk1LDAuMjczLDIuNjI0LDAuMjczYzAuMTAzLDAsMC41ODItMC42NTIsMC44NTctMS4wNTYgIGMtMC40MSwwLjA4Ni0xLjYyOCwwLjI1My0zLjI5MS0wLjIyNWMtMC4wNC0wLjE4Ny0wLjExNy0wLjM2OC0wLjI0LTAuNTNjLTAuNDIyLTAuNTU0LTEuMTk1LTAuNjc0LTEuNzcxLTAuMzAzICBjLTAuNTc4LTAuMzE0LTEuMTg0LTAuNzA3LTEuODA4LTEuMjAxYy0wLjEyNi0wLjEtMC4yNDctMC4xOTktMC4zNjQtMC4yOTljMC4zODItMC42MDEsMC40MjItMS4zNzIsMC4wODUtMi4wMiAgYzAuMDc3LTAuMDc3LDAuMTUyLTAuMTUzLDAuMjMzLTAuMjI5YzAuNjE4LTAuNTc4LDEuMi0xLjA0LDEuNzQ0LTEuNDExYy0wLjAyMi0wLjAyLTAuMDQyLTAuMDQyLTAuMDYzLTAuMDYyICBjMC4wMjIsMC4wMiwwLjA0MiwwLjA0MSwwLjA2NCwwLjA2MWMwLDAsMCwwLTAuMDAxLDBjMC44MzUsMC43NzIsMS43MiwxLjUwNCwyLjU1OSwyLjE1OCAgQzI3LjUxNCwxMi42MjEsMjcuNTQ5LDEzLjE5NCwyNy44ODYsMTMuNjM1eiIvPiYjeGE7PC9zdmc+;" vertex="1" parent="1">
          <mxGeometry x="360" y="325" width="50" height="50" as="geometry" />
        </mxCell>
        <mxCell id="0F00mVCZuprGEO0klOKh-6" value="Elasticsearch Clsuter" style="shape=image;verticalLabelPosition=bottom;labelBackgroundColor=#ffffff;verticalAlign=top;aspect=fixed;imageAspect=0;image=data:image/svg+xml,PHN2ZyB4bWxucz0iaHR0cDovL3d3dy53My5vcmcvMjAwMC9zdmciIHhtbG5zOnhsaW5rPSJodHRwOi8vd3d3LnczLm9yZy8xOTk5L3hsaW5rIiB2ZXJzaW9uPSIxLjEiIGlkPSJMYXllcl8xIiB4PSIwcHgiIHk9IjBweCIgd2lkdGg9IjUwcHgiIGhlaWdodD0iNTBweCIgdmlld0JveD0iMCAwIDUwIDUwIiBlbmFibGUtYmFja2dyb3VuZD0ibmV3IDAgMCA1MCA1MCIgeG1sOnNwYWNlPSJwcmVzZXJ2ZSI+JiN4YTs8cGF0aCBmaWxsPSIjN0E3QTdBIiBkPSJNMzMsMzhoLTEuMjA3SDE5Ljg5MmgtMC42MjFDMjAuOTIsNDMuOTk5LDE4LjcwNSw0NC44NTksOSw0NC44NTlWNDhoMTIuMzQyaDkuMDExSDQydi0zLjE0MSAgYy05LjcwNSwwLTEwLjY1Ni0wLjg1Ny05LjAwNS02Ljg1OSIvPiYjeGE7PHBhdGggZmlsbD0iI0EwQTFBMiIgZD0iTTQ2Ljk4LDJIMi43MTlDMS4yMTUsMiwwLjAwMiwzLjM0NSwwLjAwMiw0Ljg0N3YzMS4zMjljMCwxLjQ5MywxLjIxMywyLjgyMywyLjcxNywyLjgyM0g0Ni45OCAgYzEuNTAxLDAsMy4wMjEtMS4zMywzLjAyMS0yLjgyM1Y0Ljg0N0M1MC4wMDEsMy4zNDEsNDguNDgxLDIsNDYuOTgsMiIvPiYjeGE7PHBhdGggb3BhY2l0eT0iMC4yIiBmaWxsPSIjRkZGRkZGIiBlbmFibGUtYmFja2dyb3VuZD0ibmV3ICAgICIgZD0iTTQ3LjAxMSwyLjAwM2MtMC4wMTEsMC0wLjAyMS0wLjAwMi0wLjAzMS0wLjAwMkgyLjcxOCAgYy0xLjUwNCwwLTIuNzE3LDEuMzQ0LTIuNzE3LDIuODQ3djMxLjMyOEMwLjAwMSwzNy42NywxLjIxNCwzOSwyLjcxOCwzOWgxLjA1M0w0Ny4wMTEsMi4wMDN6Ii8+JiN4YTs8cG9seWdvbiBmaWxsPSIjNTlCNEQ5IiBwb2ludHM9IjQ2LDYgNDYsMzUgNCwzNSA0LDYgIi8+JiN4YTs8cmVjdCB4PSI5IiB5PSI0NSIgZmlsbD0iI0EwQTFBMiIgd2lkdGg9IjMzIiBoZWlnaHQ9IjMiLz4mI3hhOzxwYXRoIGZpbGw9IiNCOEQ0MzIiIGQ9Ik0yNS41MTgsNC4wOTVjMCwwLjM5Mi0wLjMxOCwwLjcxLTAuNzEsMC43MWMtMC4zOTMsMC0wLjcwOS0wLjMxOC0wLjcwOS0wLjcxYzAtMC4zOTMsMC4zMTYtMC43MSwwLjcwOS0wLjcxICBDMjUuMiwzLjM4NSwyNS41MTgsMy43MDIsMjUuNTE4LDQuMDk1Ii8+JiN4YTs8cGF0aCBmaWxsPSIjRkZGRkZGIiBkPSJNMjUuMDI4LDE5LjM5NGMtMC4wNDUsMC0wLjA5MS0wLjAxNC0wLjEzNC0wLjAzOGwtOC44MDQtNS4wODJjLTAuMDgxLTAuMDQ4LTAuMTMyLTAuMTM3LTAuMTMyLTAuMjMxICBjMC0wLjA5NSwwLjA1MS0wLjE4MywwLjEzMi0wLjIzbDguNzUxLTUuMDQ5YzAuMDgyLTAuMDQ2LDAuMTgyLTAuMDQ2LDAuMjYzLDBsOC44MDcsNS4wODRjMC4wODIsMC4wNDcsMC4xMzEsMC4xMzUsMC4xMzEsMC4yMyAgYzAsMC4wOTYtMC4wNDksMC4xODMtMC4xMzEsMC4yM2wtOC43NDgsNS4wNDhDMjUuMTIsMTkuMzgsMjUuMDc2LDE5LjM5NCwyNS4wMjgsMTkuMzk0Ii8+JiN4YTs8cGF0aCBvcGFjaXR5PSIwLjciIGZpbGw9IiNGRkZGRkYiIGVuYWJsZS1iYWNrZ3JvdW5kPSJuZXcgICAgIiBkPSJNMjMuNzYzLDMxLjc0NmMtMC4wNSwwLTAuMDk1LTAuMDEyLTAuMTM0LTAuMDM2bC04Ljc3OC01LjA2NiAgYy0wLjA4NS0wLjA0Ny0wLjEzNi0wLjEzMy0wLjEzNi0wLjIzMVYxNi4yNDdjMC0wLjA5NiwwLjA1MS0wLjE4MywwLjEzNi0wLjIzMWMwLjA4MS0wLjA0OSwwLjE4MS0wLjA0OSwwLjI2OCwwbDguNzc3LDUuMDY0ICBjMC4wNzgsMC4wNSwwLjEzLDAuMTM3LDAuMTMsMC4yMzN2MTAuMTY2YzAsMC4wOTctMC4wNTIsMC4xODMtMC4xMywwLjIzMUMyMy44NTIsMzEuNzM0LDIzLjgwNiwzMS43NDYsMjMuNzYzLDMxLjc0NiIvPiYjeGE7PHBhdGggb3BhY2l0eT0iMC40IiBmaWxsPSIjRkZGRkZGIiBlbmFibGUtYmFja2dyb3VuZD0ibmV3ICAgICIgZD0iTTI2LjI0OCwzMS43NDZjLTAuMDQ4LDAtMC4wOTMtMC4wMTItMC4xMzgtMC4wMzYgIGMtMC4wNzgtMC4wNDgtMC4xMjktMC4xMzQtMC4xMjktMC4yMzFWMjEuMzc3YzAtMC4wOTQsMC4wNTEtMC4xODIsMC4xMjktMC4yMzFsOC43NzctNS4wNjRjMC4wODQtMC4wNDgsMC4xODItMC4wNDgsMC4yNjQsMCAgYzAuMDg0LDAuMDQ3LDAuMTM1LDAuMTM1LDAuMTM1LDAuMjN2MTAuMTAxYzAsMC4wOTgtMC4wNTEsMC4xODQtMC4xMzUsMC4yMzFsLTguNzc0LDUuMDY2ICBDMjYuMzQsMzEuNzM0LDI2LjI5NCwzMS43NDYsMjYuMjQ4LDMxLjc0NiIvPiYjeGE7PC9zdmc+;" vertex="1" parent="1">
          <mxGeometry x="890" y="140" width="100" height="100" as="geometry" />
        </mxCell>
        <mxCell id="0F00mVCZuprGEO0klOKh-9" value="" style="edgeStyle=orthogonalEdgeStyle;html=1;endArrow=block;elbow=vertical;startArrow=block;startFill=1;endFill=1;strokeColor=#6666FF;rounded=1;exitX=1;exitY=0;exitDx=0;exitDy=0;strokeWidth=2;" edge="1" parent="1" source="1_FS9sSy4IvYd5SgdNEk-8" target="0F00mVCZuprGEO0klOKh-6">
          <mxGeometry width="100" relative="1" as="geometry">
            <mxPoint x="850" y="270" as="sourcePoint" />
            <mxPoint x="950" y="270" as="targetPoint" />
          </mxGeometry>
        </mxCell>
        <mxCell id="0F00mVCZuprGEO0klOKh-10" value="" style="edgeStyle=orthogonalEdgeStyle;html=1;endArrow=block;elbow=vertical;startArrow=block;startFill=1;endFill=1;strokeColor=#3333FF;rounded=0;entryX=0;entryY=0.5;entryDx=0;entryDy=0;strokeWidth=2;" edge="1" parent="1">
          <mxGeometry width="100" relative="1" as="geometry">
            <mxPoint x="-50" y="350" as="sourcePoint" />
            <mxPoint x="60" y="349.5" as="targetPoint" />
            <Array as="points">
              <mxPoint x="5" y="350" />
            </Array>
          </mxGeometry>
        </mxCell>
        <mxCell id="0F00mVCZuprGEO0klOKh-11" value="Users" style="outlineConnect=0;fontColor=#232F3E;gradientColor=none;strokeColor=#232F3E;fillColor=#ffffff;dashed=0;verticalLabelPosition=bottom;verticalAlign=top;align=center;html=1;fontSize=12;fontStyle=0;aspect=fixed;shape=mxgraph.aws4.resourceIcon;resIcon=mxgraph.aws4.users;" vertex="1" parent="1">
          <mxGeometry x="-360" y="315" width="60" height="60" as="geometry" />
        </mxCell>
        <mxCell id="0F00mVCZuprGEO0klOKh-12" style="edgeStyle=orthogonalEdgeStyle;rounded=1;orthogonalLoop=1;jettySize=auto;html=1;entryX=0;entryY=0.5;entryDx=0;entryDy=0;strokeColor=#3333FF;strokeWidth=2;" edge="1" parent="1">
          <mxGeometry relative="1" as="geometry">
            <mxPoint x="-300" y="349.5" as="sourcePoint" />
            <mxPoint x="-230" y="349.5" as="targetPoint" />
          </mxGeometry>
        </mxCell>
      </root>
    </mxGraphModel>
  </diagram>
</mxfile>
